<?xml version="1.0" encoding="utf-8"?>
<svg version="1.1" baseProfile="full"  width="328" height="328" viewBox="0 0 328 328"
		 xmlns="http://www.w3.org/2000/svg" xmlns:xlink="http://www.w3.org/1999/xlink" xmlns:ev="http://www.w3.org/2001/xml-events">
<rect width="328" height="328" fill="#ffffff" cx="0" cy="0" />
<defs>
<rect id="p" width="8" height="8" />
</defs>
<g fill="#000000">
<use x="32" y="32" xlink:href="#p" />
<use x="32" y="40" xlink:href="#p" />
<use x="32" y="48" xlink:href="#p" />
<use x="32" y="56" xlink:href="#p" />
<use x="32" y="64" xlink:href="#p" />
<use x="32" y="72" xlink:href="#p" />
<use x="32" y="80" xlink:href="#p" />
<use x="32" y="96" xlink:href="#p" />
<use x="32" y="104" xlink:href="#p" />
<use x="32" y="120" xlink:href="#p" />
<use x="32" y="136" xlink:href="#p" />
<use x="32" y="144" xlink:href="#p" />
<use x="32" y="152" xlink:href="#p" />
<use x="32" y="168" xlink:href="#p" />
<use x="32" y="200" xlink:href="#p" />
<use x="32" y="216" xlink:href="#p" />
<use x="32" y="240" xlink:href="#p" />
<use x="32" y="248" xlink:href="#p" />
<use x="32" y="256" xlink:href="#p" />
<use x="32" y="264" xlink:href="#p" />
<use x="32" y="272" xlink:href="#p" />
<use x="32" y="280" xlink:href="#p" />
<use x="32" y="288" xlink:href="#p" />
<use x="40" y="32" xlink:href="#p" />
<use x="40" y="80" xlink:href="#p" />
<use x="40" y="96" xlink:href="#p" />
<use x="40" y="104" xlink:href="#p" />
<use x="40" y="120" xlink:href="#p" />
<use x="40" y="128" xlink:href="#p" />
<use x="40" y="168" xlink:href="#p" />
<use x="40" y="200" xlink:href="#p" />
<use x="40" y="224" xlink:href="#p" />
<use x="40" y="240" xlink:href="#p" />
<use x="40" y="288" xlink:href="#p" />
<use x="48" y="32" xlink:href="#p" />
<use x="48" y="48" xlink:href="#p" />
<use x="48" y="56" xlink:href="#p" />
<use x="48" y="64" xlink:href="#p" />
<use x="48" y="80" xlink:href="#p" />
<use x="48" y="112" xlink:href="#p" />
<use x="48" y="128" xlink:href="#p" />
<use x="48" y="144" xlink:href="#p" />
<use x="48" y="168" xlink:href="#p" />
<use x="48" y="176" xlink:href="#p" />
<use x="48" y="192" xlink:href="#p" />
<use x="48" y="200" xlink:href="#p" />
<use x="48" y="216" xlink:href="#p" />
<use x="48" y="224" xlink:href="#p" />
<use x="48" y="240" xlink:href="#p" />
<use x="48" y="256" xlink:href="#p" />
<use x="48" y="264" xlink:href="#p" />
<use x="48" y="272" xlink:href="#p" />
<use x="48" y="288" xlink:href="#p" />
<use x="56" y="32" xlink:href="#p" />
<use x="56" y="48" xlink:href="#p" />
<use x="56" y="56" xlink:href="#p" />
<use x="56" y="64" xlink:href="#p" />
<use x="56" y="80" xlink:href="#p" />
<use x="56" y="96" xlink:href="#p" />
<use x="56" y="104" xlink:href="#p" />
<use x="56" y="112" xlink:href="#p" />
<use x="56" y="128" xlink:href="#p" />
<use x="56" y="160" xlink:href="#p" />
<use x="56" y="176" xlink:href="#p" />
<use x="56" y="184" xlink:href="#p" />
<use x="56" y="200" xlink:href="#p" />
<use x="56" y="208" xlink:href="#p" />
<use x="56" y="240" xlink:href="#p" />
<use x="56" y="256" xlink:href="#p" />
<use x="56" y="264" xlink:href="#p" />
<use x="56" y="272" xlink:href="#p" />
<use x="56" y="288" xlink:href="#p" />
<use x="64" y="32" xlink:href="#p" />
<use x="64" y="48" xlink:href="#p" />
<use x="64" y="56" xlink:href="#p" />
<use x="64" y="64" xlink:href="#p" />
<use x="64" y="80" xlink:href="#p" />
<use x="64" y="104" xlink:href="#p" />
<use x="64" y="128" xlink:href="#p" />
<use x="64" y="144" xlink:href="#p" />
<use x="64" y="152" xlink:href="#p" />
<use x="64" y="168" xlink:href="#p" />
<use x="64" y="176" xlink:href="#p" />
<use x="64" y="192" xlink:href="#p" />
<use x="64" y="208" xlink:href="#p" />
<use x="64" y="224" xlink:href="#p" />
<use x="64" y="240" xlink:href="#p" />
<use x="64" y="256" xlink:href="#p" />
<use x="64" y="264" xlink:href="#p" />
<use x="64" y="272" xlink:href="#p" />
<use x="64" y="288" xlink:href="#p" />
<use x="72" y="32" xlink:href="#p" />
<use x="72" y="80" xlink:href="#p" />
<use x="72" y="176" xlink:href="#p" />
<use x="72" y="192" xlink:href="#p" />
<use x="72" y="208" xlink:href="#p" />
<use x="72" y="216" xlink:href="#p" />
<use x="72" y="240" xlink:href="#p" />
<use x="72" y="288" xlink:href="#p" />
<use x="80" y="32" xlink:href="#p" />
<use x="80" y="40" xlink:href="#p" />
<use x="80" y="48" xlink:href="#p" />
<use x="80" y="56" xlink:href="#p" />
<use x="80" y="64" xlink:href="#p" />
<use x="80" y="72" xlink:href="#p" />
<use x="80" y="80" xlink:href="#p" />
<use x="80" y="96" xlink:href="#p" />
<use x="80" y="112" xlink:href="#p" />
<use x="80" y="128" xlink:href="#p" />
<use x="80" y="144" xlink:href="#p" />
<use x="80" y="160" xlink:href="#p" />
<use x="80" y="176" xlink:href="#p" />
<use x="80" y="192" xlink:href="#p" />
<use x="80" y="208" xlink:href="#p" />
<use x="80" y="224" xlink:href="#p" />
<use x="80" y="240" xlink:href="#p" />
<use x="80" y="248" xlink:href="#p" />
<use x="80" y="256" xlink:href="#p" />
<use x="80" y="264" xlink:href="#p" />
<use x="80" y="272" xlink:href="#p" />
<use x="80" y="280" xlink:href="#p" />
<use x="80" y="288" xlink:href="#p" />
<use x="88" y="96" xlink:href="#p" />
<use x="88" y="104" xlink:href="#p" />
<use x="88" y="120" xlink:href="#p" />
<use x="88" y="136" xlink:href="#p" />
<use x="88" y="144" xlink:href="#p" />
<use x="88" y="168" xlink:href="#p" />
<use x="88" y="184" xlink:href="#p" />
<use x="88" y="216" xlink:href="#p" />
<use x="88" y="224" xlink:href="#p" />
<use x="96" y="40" xlink:href="#p" />
<use x="96" y="48" xlink:href="#p" />
<use x="96" y="64" xlink:href="#p" />
<use x="96" y="72" xlink:href="#p" />
<use x="96" y="80" xlink:href="#p" />
<use x="96" y="88" xlink:href="#p" />
<use x="96" y="104" xlink:href="#p" />
<use x="96" y="112" xlink:href="#p" />
<use x="96" y="120" xlink:href="#p" />
<use x="96" y="136" xlink:href="#p" />
<use x="96" y="152" xlink:href="#p" />
<use x="96" y="160" xlink:href="#p" />
<use x="96" y="200" xlink:href="#p" />
<use x="96" y="224" xlink:href="#p" />
<use x="96" y="232" xlink:href="#p" />
<use x="96" y="240" xlink:href="#p" />
<use x="96" y="264" xlink:href="#p" />
<use x="96" y="280" xlink:href="#p" />
<use x="96" y="288" xlink:href="#p" />
<use x="104" y="40" xlink:href="#p" />
<use x="104" y="56" xlink:href="#p" />
<use x="104" y="64" xlink:href="#p" />
<use x="104" y="104" xlink:href="#p" />
<use x="104" y="120" xlink:href="#p" />
<use x="104" y="160" xlink:href="#p" />
<use x="104" y="176" xlink:href="#p" />
<use x="104" y="184" xlink:href="#p" />
<use x="104" y="200" xlink:href="#p" />
<use x="104" y="216" xlink:href="#p" />
<use x="104" y="224" xlink:href="#p" />
<use x="104" y="232" xlink:href="#p" />
<use x="104" y="240" xlink:href="#p" />
<use x="104" y="248" xlink:href="#p" />
<use x="104" y="264" xlink:href="#p" />
<use x="104" y="272" xlink:href="#p" />
<use x="104" y="288" xlink:href="#p" />
<use x="112" y="32" xlink:href="#p" />
<use x="112" y="40" xlink:href="#p" />
<use x="112" y="64" xlink:href="#p" />
<use x="112" y="72" xlink:href="#p" />
<use x="112" y="80" xlink:href="#p" />
<use x="112" y="88" xlink:href="#p" />
<use x="112" y="120" xlink:href="#p" />
<use x="112" y="128" xlink:href="#p" />
<use x="112" y="168" xlink:href="#p" />
<use x="112" y="176" xlink:href="#p" />
<use x="112" y="184" xlink:href="#p" />
<use x="112" y="192" xlink:href="#p" />
<use x="112" y="208" xlink:href="#p" />
<use x="112" y="232" xlink:href="#p" />
<use x="112" y="240" xlink:href="#p" />
<use x="112" y="248" xlink:href="#p" />
<use x="112" y="256" xlink:href="#p" />
<use x="112" y="264" xlink:href="#p" />
<use x="112" y="280" xlink:href="#p" />
<use x="112" y="288" xlink:href="#p" />
<use x="120" y="88" xlink:href="#p" />
<use x="120" y="96" xlink:href="#p" />
<use x="120" y="104" xlink:href="#p" />
<use x="120" y="112" xlink:href="#p" />
<use x="120" y="120" xlink:href="#p" />
<use x="120" y="128" xlink:href="#p" />
<use x="120" y="136" xlink:href="#p" />
<use x="120" y="144" xlink:href="#p" />
<use x="120" y="152" xlink:href="#p" />
<use x="120" y="176" xlink:href="#p" />
<use x="120" y="200" xlink:href="#p" />
<use x="120" y="232" xlink:href="#p" />
<use x="120" y="256" xlink:href="#p" />
<use x="120" y="280" xlink:href="#p" />
<use x="120" y="288" xlink:href="#p" />
<use x="128" y="56" xlink:href="#p" />
<use x="128" y="64" xlink:href="#p" />
<use x="128" y="72" xlink:href="#p" />
<use x="128" y="80" xlink:href="#p" />
<use x="128" y="96" xlink:href="#p" />
<use x="128" y="104" xlink:href="#p" />
<use x="128" y="112" xlink:href="#p" />
<use x="128" y="120" xlink:href="#p" />
<use x="128" y="160" xlink:href="#p" />
<use x="128" y="168" xlink:href="#p" />
<use x="128" y="176" xlink:href="#p" />
<use x="128" y="184" xlink:href="#p" />
<use x="128" y="224" xlink:href="#p" />
<use x="128" y="232" xlink:href="#p" />
<use x="128" y="240" xlink:href="#p" />
<use x="128" y="248" xlink:href="#p" />
<use x="128" y="256" xlink:href="#p" />
<use x="128" y="272" xlink:href="#p" />
<use x="128" y="280" xlink:href="#p" />
<use x="128" y="288" xlink:href="#p" />
<use x="136" y="40" xlink:href="#p" />
<use x="136" y="56" xlink:href="#p" />
<use x="136" y="64" xlink:href="#p" />
<use x="136" y="72" xlink:href="#p" />
<use x="136" y="104" xlink:href="#p" />
<use x="136" y="112" xlink:href="#p" />
<use x="136" y="120" xlink:href="#p" />
<use x="136" y="152" xlink:href="#p" />
<use x="136" y="160" xlink:href="#p" />
<use x="136" y="200" xlink:href="#p" />
<use x="136" y="208" xlink:href="#p" />
<use x="136" y="216" xlink:href="#p" />
<use x="136" y="224" xlink:href="#p" />
<use x="136" y="232" xlink:href="#p" />
<use x="136" y="240" xlink:href="#p" />
<use x="136" y="248" xlink:href="#p" />
<use x="136" y="288" xlink:href="#p" />
<use x="144" y="56" xlink:href="#p" />
<use x="144" y="64" xlink:href="#p" />
<use x="144" y="80" xlink:href="#p" />
<use x="144" y="88" xlink:href="#p" />
<use x="144" y="96" xlink:href="#p" />
<use x="144" y="112" xlink:href="#p" />
<use x="144" y="144" xlink:href="#p" />
<use x="144" y="168" xlink:href="#p" />
<use x="144" y="184" xlink:href="#p" />
<use x="144" y="192" xlink:href="#p" />
<use x="144" y="224" xlink:href="#p" />
<use x="144" y="240" xlink:href="#p" />
<use x="144" y="264" xlink:href="#p" />
<use x="144" y="280" xlink:href="#p" />
<use x="144" y="288" xlink:href="#p" />
<use x="152" y="40" xlink:href="#p" />
<use x="152" y="48" xlink:href="#p" />
<use x="152" y="64" xlink:href="#p" />
<use x="152" y="72" xlink:href="#p" />
<use x="152" y="120" xlink:href="#p" />
<use x="152" y="152" xlink:href="#p" />
<use x="152" y="216" xlink:href="#p" />
<use x="152" y="248" xlink:href="#p" />
<use x="152" y="256" xlink:href="#p" />
<use x="152" y="288" xlink:href="#p" />
<use x="160" y="80" xlink:href="#p" />
<use x="160" y="88" xlink:href="#p" />
<use x="160" y="104" xlink:href="#p" />
<use x="160" y="112" xlink:href="#p" />
<use x="160" y="120" xlink:href="#p" />
<use x="160" y="128" xlink:href="#p" />
<use x="160" y="144" xlink:href="#p" />
<use x="160" y="152" xlink:href="#p" />
<use x="160" y="160" xlink:href="#p" />
<use x="160" y="168" xlink:href="#p" />
<use x="160" y="184" xlink:href="#p" />
<use x="160" y="200" xlink:href="#p" />
<use x="160" y="208" xlink:href="#p" />
<use x="160" y="224" xlink:href="#p" />
<use x="160" y="248" xlink:href="#p" />
<use x="160" y="264" xlink:href="#p" />
<use x="160" y="288" xlink:href="#p" />
<use x="168" y="32" xlink:href="#p" />
<use x="168" y="48" xlink:href="#p" />
<use x="168" y="64" xlink:href="#p" />
<use x="168" y="88" xlink:href="#p" />
<use x="168" y="104" xlink:href="#p" />
<use x="168" y="128" xlink:href="#p" />
<use x="168" y="152" xlink:href="#p" />
<use x="168" y="160" xlink:href="#p" />
<use x="168" y="176" xlink:href="#p" />
<use x="168" y="184" xlink:href="#p" />
<use x="168" y="224" xlink:href="#p" />
<use x="168" y="248" xlink:href="#p" />
<use x="168" y="256" xlink:href="#p" />
<use x="168" y="272" xlink:href="#p" />
<use x="168" y="280" xlink:href="#p" />
<use x="176" y="32" xlink:href="#p" />
<use x="176" y="56" xlink:href="#p" />
<use x="176" y="64" xlink:href="#p" />
<use x="176" y="72" xlink:href="#p" />
<use x="176" y="80" xlink:href="#p" />
<use x="176" y="88" xlink:href="#p" />
<use x="176" y="120" xlink:href="#p" />
<use x="176" y="128" xlink:href="#p" />
<use x="176" y="152" xlink:href="#p" />
<use x="176" y="176" xlink:href="#p" />
<use x="176" y="248" xlink:href="#p" />
<use x="176" y="272" xlink:href="#p" />
<use x="176" y="288" xlink:href="#p" />
<use x="184" y="32" xlink:href="#p" />
<use x="184" y="48" xlink:href="#p" />
<use x="184" y="56" xlink:href="#p" />
<use x="184" y="72" xlink:href="#p" />
<use x="184" y="112" xlink:href="#p" />
<use x="184" y="120" xlink:href="#p" />
<use x="184" y="128" xlink:href="#p" />
<use x="184" y="136" xlink:href="#p" />
<use x="184" y="152" xlink:href="#p" />
<use x="184" y="184" xlink:href="#p" />
<use x="184" y="208" xlink:href="#p" />
<use x="184" y="216" xlink:href="#p" />
<use x="184" y="232" xlink:href="#p" />
<use x="184" y="256" xlink:href="#p" />
<use x="192" y="40" xlink:href="#p" />
<use x="192" y="80" xlink:href="#p" />
<use x="192" y="104" xlink:href="#p" />
<use x="192" y="112" xlink:href="#p" />
<use x="192" y="120" xlink:href="#p" />
<use x="192" y="128" xlink:href="#p" />
<use x="192" y="136" xlink:href="#p" />
<use x="192" y="144" xlink:href="#p" />
<use x="192" y="152" xlink:href="#p" />
<use x="192" y="160" xlink:href="#p" />
<use x="192" y="168" xlink:href="#p" />
<use x="192" y="184" xlink:href="#p" />
<use x="192" y="192" xlink:href="#p" />
<use x="192" y="208" xlink:href="#p" />
<use x="192" y="232" xlink:href="#p" />
<use x="192" y="240" xlink:href="#p" />
<use x="200" y="64" xlink:href="#p" />
<use x="200" y="88" xlink:href="#p" />
<use x="200" y="96" xlink:href="#p" />
<use x="200" y="120" xlink:href="#p" />
<use x="200" y="128" xlink:href="#p" />
<use x="200" y="136" xlink:href="#p" />
<use x="200" y="152" xlink:href="#p" />
<use x="200" y="160" xlink:href="#p" />
<use x="200" y="168" xlink:href="#p" />
<use x="200" y="176" xlink:href="#p" />
<use x="200" y="184" xlink:href="#p" />
<use x="200" y="192" xlink:href="#p" />
<use x="200" y="208" xlink:href="#p" />
<use x="200" y="216" xlink:href="#p" />
<use x="200" y="224" xlink:href="#p" />
<use x="200" y="232" xlink:href="#p" />
<use x="200" y="248" xlink:href="#p" />
<use x="200" y="256" xlink:href="#p" />
<use x="200" y="272" xlink:href="#p" />
<use x="200" y="280" xlink:href="#p" />
<use x="200" y="288" xlink:href="#p" />
<use x="208" y="40" xlink:href="#p" />
<use x="208" y="48" xlink:href="#p" />
<use x="208" y="56" xlink:href="#p" />
<use x="208" y="72" xlink:href="#p" />
<use x="208" y="80" xlink:href="#p" />
<use x="208" y="120" xlink:href="#p" />
<use x="208" y="136" xlink:href="#p" />
<use x="208" y="160" xlink:href="#p" />
<use x="208" y="168" xlink:href="#p" />
<use x="208" y="176" xlink:href="#p" />
<use x="208" y="192" xlink:href="#p" />
<use x="208" y="208" xlink:href="#p" />
<use x="208" y="216" xlink:href="#p" />
<use x="208" y="256" xlink:href="#p" />
<use x="216" y="40" xlink:href="#p" />
<use x="216" y="64" xlink:href="#p" />
<use x="216" y="104" xlink:href="#p" />
<use x="216" y="120" xlink:href="#p" />
<use x="216" y="144" xlink:href="#p" />
<use x="216" y="152" xlink:href="#p" />
<use x="216" y="168" xlink:href="#p" />
<use x="216" y="184" xlink:href="#p" />
<use x="216" y="216" xlink:href="#p" />
<use x="216" y="224" xlink:href="#p" />
<use x="216" y="232" xlink:href="#p" />
<use x="224" y="72" xlink:href="#p" />
<use x="224" y="80" xlink:href="#p" />
<use x="224" y="88" xlink:href="#p" />
<use x="224" y="96" xlink:href="#p" />
<use x="224" y="104" xlink:href="#p" />
<use x="224" y="136" xlink:href="#p" />
<use x="224" y="144" xlink:href="#p" />
<use x="224" y="152" xlink:href="#p" />
<use x="224" y="160" xlink:href="#p" />
<use x="224" y="168" xlink:href="#p" />
<use x="224" y="192" xlink:href="#p" />
<use x="224" y="200" xlink:href="#p" />
<use x="224" y="216" xlink:href="#p" />
<use x="224" y="224" xlink:href="#p" />
<use x="224" y="232" xlink:href="#p" />
<use x="224" y="240" xlink:href="#p" />
<use x="224" y="248" xlink:href="#p" />
<use x="224" y="256" xlink:href="#p" />
<use x="224" y="264" xlink:href="#p" />
<use x="224" y="272" xlink:href="#p" />
<use x="224" y="280" xlink:href="#p" />
<use x="224" y="288" xlink:href="#p" />
<use x="232" y="104" xlink:href="#p" />
<use x="232" y="112" xlink:href="#p" />
<use x="232" y="128" xlink:href="#p" />
<use x="232" y="144" xlink:href="#p" />
<use x="232" y="168" xlink:href="#p" />
<use x="232" y="176" xlink:href="#p" />
<use x="232" y="184" xlink:href="#p" />
<use x="232" y="200" xlink:href="#p" />
<use x="232" y="224" xlink:href="#p" />
<use x="232" y="256" xlink:href="#p" />
<use x="232" y="280" xlink:href="#p" />
<use x="240" y="32" xlink:href="#p" />
<use x="240" y="40" xlink:href="#p" />
<use x="240" y="48" xlink:href="#p" />
<use x="240" y="56" xlink:href="#p" />
<use x="240" y="64" xlink:href="#p" />
<use x="240" y="72" xlink:href="#p" />
<use x="240" y="80" xlink:href="#p" />
<use x="240" y="96" xlink:href="#p" />
<use x="240" y="104" xlink:href="#p" />
<use x="240" y="112" xlink:href="#p" />
<use x="240" y="128" xlink:href="#p" />
<use x="240" y="136" xlink:href="#p" />
<use x="240" y="144" xlink:href="#p" />
<use x="240" y="152" xlink:href="#p" />
<use x="240" y="160" xlink:href="#p" />
<use x="240" y="200" xlink:href="#p" />
<use x="240" y="224" xlink:href="#p" />
<use x="240" y="240" xlink:href="#p" />
<use x="240" y="256" xlink:href="#p" />
<use x="240" y="264" xlink:href="#p" />
<use x="240" y="272" xlink:href="#p" />
<use x="248" y="32" xlink:href="#p" />
<use x="248" y="80" xlink:href="#p" />
<use x="248" y="96" xlink:href="#p" />
<use x="248" y="136" xlink:href="#p" />
<use x="248" y="152" xlink:href="#p" />
<use x="248" y="176" xlink:href="#p" />
<use x="248" y="192" xlink:href="#p" />
<use x="248" y="216" xlink:href="#p" />
<use x="248" y="224" xlink:href="#p" />
<use x="248" y="256" xlink:href="#p" />
<use x="248" y="264" xlink:href="#p" />
<use x="248" y="272" xlink:href="#p" />
<use x="248" y="280" xlink:href="#p" />
<use x="248" y="288" xlink:href="#p" />
<use x="256" y="32" xlink:href="#p" />
<use x="256" y="48" xlink:href="#p" />
<use x="256" y="56" xlink:href="#p" />
<use x="256" y="64" xlink:href="#p" />
<use x="256" y="80" xlink:href="#p" />
<use x="256" y="96" xlink:href="#p" />
<use x="256" y="112" xlink:href="#p" />
<use x="256" y="120" xlink:href="#p" />
<use x="256" y="136" xlink:href="#p" />
<use x="256" y="160" xlink:href="#p" />
<use x="256" y="176" xlink:href="#p" />
<use x="256" y="184" xlink:href="#p" />
<use x="256" y="216" xlink:href="#p" />
<use x="256" y="224" xlink:href="#p" />
<use x="256" y="232" xlink:href="#p" />
<use x="256" y="240" xlink:href="#p" />
<use x="256" y="248" xlink:href="#p" />
<use x="256" y="256" xlink:href="#p" />
<use x="256" y="264" xlink:href="#p" />
<use x="256" y="272" xlink:href="#p" />
<use x="256" y="280" xlink:href="#p" />
<use x="256" y="288" xlink:href="#p" />
<use x="264" y="32" xlink:href="#p" />
<use x="264" y="48" xlink:href="#p" />
<use x="264" y="56" xlink:href="#p" />
<use x="264" y="64" xlink:href="#p" />
<use x="264" y="80" xlink:href="#p" />
<use x="264" y="104" xlink:href="#p" />
<use x="264" y="112" xlink:href="#p" />
<use x="264" y="128" xlink:href="#p" />
<use x="264" y="136" xlink:href="#p" />
<use x="264" y="144" xlink:href="#p" />
<use x="264" y="152" xlink:href="#p" />
<use x="264" y="168" xlink:href="#p" />
<use x="264" y="176" xlink:href="#p" />
<use x="264" y="184" xlink:href="#p" />
<use x="264" y="192" xlink:href="#p" />
<use x="264" y="208" xlink:href="#p" />
<use x="264" y="216" xlink:href="#p" />
<use x="264" y="272" xlink:href="#p" />
<use x="272" y="32" xlink:href="#p" />
<use x="272" y="48" xlink:href="#p" />
<use x="272" y="56" xlink:href="#p" />
<use x="272" y="64" xlink:href="#p" />
<use x="272" y="80" xlink:href="#p" />
<use x="272" y="96" xlink:href="#p" />
<use x="272" y="136" xlink:href="#p" />
<use x="272" y="168" xlink:href="#p" />
<use x="272" y="200" xlink:href="#p" />
<use x="272" y="264" xlink:href="#p" />
<use x="272" y="272" xlink:href="#p" />
<use x="280" y="32" xlink:href="#p" />
<use x="280" y="80" xlink:href="#p" />
<use x="280" y="96" xlink:href="#p" />
<use x="280" y="120" xlink:href="#p" />
<use x="280" y="136" xlink:href="#p" />
<use x="280" y="144" xlink:href="#p" />
<use x="280" y="152" xlink:href="#p" />
<use x="280" y="176" xlink:href="#p" />
<use x="280" y="192" xlink:href="#p" />
<use x="280" y="216" xlink:href="#p" />
<use x="280" y="240" xlink:href="#p" />
<use x="280" y="248" xlink:href="#p" />
<use x="280" y="264" xlink:href="#p" />
<use x="280" y="272" xlink:href="#p" />
<use x="280" y="288" xlink:href="#p" />
<use x="288" y="32" xlink:href="#p" />
<use x="288" y="40" xlink:href="#p" />
<use x="288" y="48" xlink:href="#p" />
<use x="288" y="56" xlink:href="#p" />
<use x="288" y="64" xlink:href="#p" />
<use x="288" y="72" xlink:href="#p" />
<use x="288" y="80" xlink:href="#p" />
<use x="288" y="104" xlink:href="#p" />
<use x="288" y="112" xlink:href="#p" />
<use x="288" y="120" xlink:href="#p" />
<use x="288" y="128" xlink:href="#p" />
<use x="288" y="136" xlink:href="#p" />
<use x="288" y="160" xlink:href="#p" />
<use x="288" y="176" xlink:href="#p" />
<use x="288" y="200" xlink:href="#p" />
<use x="288" y="208" xlink:href="#p" />
<use x="288" y="216" xlink:href="#p" />
<use x="288" y="232" xlink:href="#p" />
<use x="288" y="256" xlink:href="#p" />
<use x="288" y="264" xlink:href="#p" />
<use x="288" y="272" xlink:href="#p" />
</g>
</svg>